<svg xmlns="http://www.w3.org/2000/svg" viewBox="0 0 512 512" id="catapult">
  <path fill="#787681" d="M381.33 272.92a7.5 7.5 0 0 1-6.07-3.08L257.91 109.17a7.5 7.5 0 0 1 12.09-8.85L387.38 261a7.5 7.5 0 0 1-6.05 11.92Z"></path>
  <path fill="#b28b6a" d="m459.25 224.73-.57 35.27-94.66 49.42-20.89 10.91-5.17 2.7-21.02 10.98-30.44 15.89-27.96 14.6.62-35.3 27.34-14.27 10.4-5.43 21.02-10.98 4.87-2.54 20.89-10.9 115.57-60.35z"></path>
  <circle cx="449.31" cy="198.75" r="32.79" fill="#787681"></circle>
  <path fill="#57565c" d="M449.31 166a33.1 33.1 0 0 0-7.5.87 32.79 32.79 0 0 1 0 63.84 32.79 32.79 0 1 0 7.5-64.71Z"></path>
  <path fill="#c8c5cc" d="M478.34 253a52.17 52.17 0 0 1-71.24-19.2l90.44-52a52.17 52.17 0 0 1-19.2 71.2Z"></path>
  <path fill="#aeadb3" d="m497.54 181.84-11.74 6.75a52.15 52.15 0 0 1-40.94 70.85 52.14 52.14 0 0 0 52.68-77.6Z"></path>
  <path fill="#a17855" d="M7.5 387.56h497v31H7.5z"></path>
  <path fill="#896848" d="M489.5 387.56a16 16 0 0 1-16 16H7.5v15h497v-31Z"></path>
  <path fill="#a17855" d="m364.02 309.42-26.06 13.61-20.04-24.51 25.76-13.44 20.34 24.34z"></path>
  <path fill="#a17855" d="m343.13 320.33-5.17 2.7-21.02 10.98-20.04-24.51 21.02-10.98 4.87-2.54 20.34 24.35z"></path>
  <path fill="#b28b6a" d="M440.21 418.56h-39.14L286.5 278.44l-15-18.35v-43.44l15 17.95 153.71 183.96zM240.5 211.12v48.97l-15 18.35-114.57 140.12H70.89L225.5 229.47l15-18.35z"></path>
  <path fill="#a17855" d="M240.5 211.12v48.97l-15 18.35v-48.97l15-18.35zM286.5 234.6v43.84l-15-18.35v-43.44l15 17.95zM286.5 314.93v34.97l-27.96 14.6.62-35.3 27.34-14.27z"></path>
  <path fill="#b28b6a" d="M240.5 94.76h31v292.8h-31z"></path>
  <circle cx="426.5" cy="403.06" r="45.18" fill="#787681"></circle>
  <path fill="#57565c" d="M426.5 357.88a45.18 45.18 0 0 0-7.5.63 45.18 45.18 0 0 1 0 89.1 45.18 45.18 0 1 0 7.5-89.73Z"></path>
  <circle cx="85.5" cy="403.06" r="45.18" fill="#787681"></circle>
  <path fill="#57565c" d="M85.5 357.88a45.18 45.18 0 0 0-7.5.63 45.18 45.18 0 0 1 0 89.1 45.18 45.18 0 1 0 7.5-89.73Z"></path>
  <path fill="#b28b6a" d="M234 63.76h44a15.5 15.5 0 0 1 15.5 15.5 15.5 15.5 0 0 1-15.5 15.5h-44a15.5 15.5 0 0 1-15.5-15.5 15.5 15.5 0 0 1 15.5-15.5Z"></path>
  <path fill="#a17855" d="M278.48 63.78v.48A15.5 15.5 0 0 1 263 79.76h-44.48a15.5 15.5 0 0 0 15.48 15h44a15.49 15.49 0 0 0 .48-31Z"></path>
  <path fill="#c8c5cc" d="M85.5 425.56a7.5 7.5 0 0 1-7.5-7.5v-30a7.5 7.5 0 0 1 15 0v30a7.5 7.5 0 0 1-7.5 7.5Z"></path>
  <path fill="#c8c5cc" d="M100.5 410.56h-30a7.5 7.5 0 0 1 0-15h30a7.5 7.5 0 0 1 0 15zm326 15a7.5 7.5 0 0 1-7.5-7.5v-30a7.5 7.5 0 1 1 15 0v30a7.5 7.5 0 0 1-7.5 7.5z"></path>
  <path fill="#c8c5cc" d="M441.5 410.56h-30a7.5 7.5 0 0 1 0-15h30a7.5 7.5 0 0 1 0 15Z"></path>
  <path d="M100.5 395.56H93v-7.5a7.5 7.5 0 0 0-15 0v7.5h-7.5a7.5 7.5 0 0 0 0 15H78v7.5a7.5 7.5 0 0 0 15 0v-7.5h7.5a7.5 7.5 0 0 0 0-15Zm411.5-8.21v-.51c0-.17 0-.31-.06-.47s0-.16 0-.24V386l-25.27-129.4A59.76 59.76 0 0 0 504 178.1a7.5 7.5 0 0 0-10.24-2.76l-8.64 5a40.31 40.31 0 1 0-69.82 40.14l-12 6.89a7.51 7.51 0 0 0-3 9.86l.21.38a62 62 0 0 0 4.63 6.9l-21.66 11.31L279 112.61v-10.38a23 23 0 0 0-1-46h-44a23 23 0 0 0-1 46v106.21L111.38 357.2a52.62 52.62 0 0 0-73.26 22.86H7.5a7.5 7.5 0 0 0-7.5 7.5v31a7.5 7.5 0 0 0 7.5 7.5h30.62a52.66 52.66 0 0 0 94.76 0h246.24a52.66 52.66 0 0 0 94.76 0h30.62a7.5 7.5 0 0 0 7.5-7.5v-31.21ZM33.43 411.06H15v-16h18.43a52.76 52.76 0 0 0 0 16Zm415.88-237.6a25.16 25.16 0 0 1 22.8 14.35L428.37 213a25.31 25.31 0 0 1 20.94-39.5Zm-19 55.69.07-.05L485 197.73l.14-.08 9.14-5.25a44.72 44.72 0 0 1-36.1 59.74h-.25a44.95 44.95 0 0 1-35.22-10.9s-.07-.06-.1-.1a44 44 0 0 1-4.68-4.87Zm-13.85 26.39a59.13 59.13 0 0 0 17.32 9l-78.32 40.9L345 292.87Zm-46.34 7.27-35 18.28L279 213.93V138ZM226 79.26a8 8 0 0 1 8-8h44a8 8 0 0 1 0 16h-44a8 8 0 0 1-8-8Zm53 266.09V327.3l26.47-13.82 10.34 12.66Zm46.51-7.35 34.39 42.07H279v-17.79ZM279 310.38v-29.27l16.77 20.52Zm-15-208.12v277.8h-16v-277.8ZM85.5 440.74a37.68 37.68 0 1 1 37.68-37.68 37.72 37.72 0 0 1-37.68 37.68Zm47.32-60.8a52.87 52.87 0 0 0-9.57-13.57L233 232.14v25.27ZM233 281.11v98.95h-80.9Zm-95.43 130a52.77 52.77 0 0 0 .61-8 54.87 54.87 0 0 0-.3-5.61l2-2.39h232.28l2 2.39a54.87 54.87 0 0 0-.3 5.61 52.77 52.77 0 0 0 .61 8Zm241.61-31.12-45.89-56.12-.06-.08-20-24.43-.06-.08L279 257.41v-20.09l108.73 130.12a52.66 52.66 0 0 0-8.55 12.5Zm47.32 60.8a37.68 37.68 0 1 1 37.68-37.68 37.72 37.72 0 0 1-37.68 37.63Zm47.38-60.68a52.64 52.64 0 0 0-74.55-22.12l-34-40.72L462 266.74a60.24 60.24 0 0 0 10.83-2.86l22.57 116.18Zm23.12 31h-18.43a52.76 52.76 0 0 0 0-16H497Zm-55.5-15.5H434v-7.5a7.5 7.5 0 1 0-15 0v7.5h-7.5a7.5 7.5 0 0 0 0 15h7.5v7.5a7.5 7.5 0 0 0 15 0v-7.5h7.5a7.5 7.5 0 0 0 0-15Z"></path>
</svg>
